<?xml version="1.0" encoding="utf-8"?>
<!-- Generator: Adobe Illustrator 24.3.0, SVG Export Plug-In . SVG Version: 6.00 Build 0)  -->
<svg version="1.1" id="Layer_1" xmlns="http://www.w3.org/2000/svg" xmlns:xlink="http://www.w3.org/1999/xlink" x="0px" y="0px"
	 viewBox="0 0 1000 1000" style="enable-background:new 0 0 1000 1000;" xml:space="preserve">
<style type="text/css">
	.st0{fill:#FFFFFF;}
	.st1{fill:#2C78BC;}
	.st2{fill:#EFB916;}
	.st3{fill:none;}
</style>
<g>
	<polygon class="st0" points="585.1,500.3 501.4,603.2 506,624.7 635.9,673.3 737.7,585.1 789.7,495.8 678.9,440.4 	"/>
	<path class="st1" d="M508.5,602.9c-0.5-45.9,42.4-80,85.8-80c7.9,0,11,6.7,18,8.9c3.7-0.5,10.9,3.9,14.6,3.9
		c4.3,0,10.1,3.6,14.2,4.3c1.3-9.1,1.4-31.7,1.4-41.1c0-105.1-85.2-190.4-190.4-190.4s-190.4,85.2-190.4,190.4
		c0,105.1,85.2,190.4,190.4,190.4c30.8,0,78.5-14,104.2-27C538.3,645.9,508.8,628,508.5,602.9z"/>
	<path class="st2" d="M619.6,406.3c-10.4,3.6-21.4,5.6-32.5,5.6c-33.2,0-60.3-18.9-76.1-45.2c-17.5,2.8-34.5,7.4-51.2,13.1
		c-34,14.1-66.6,31.2-99.8,47c-23.7,11.2-47.9,22.6-73.2,29.6c-10.8,3-21.7,5-32.6,7.4c-2.5,12.6-3.9,25.6-3.9,38.9
		c0,108.9,88.3,197.2,197.2,197.2c46.3,0,88.9-16,122.6-42.8c-11.8-8.6-52-22.9-59.4-35.3c-12.2-20.5,16.6-47.9,23.6-70.3
		c6.5-20.7,24.7-46,45.3-54.8c3-1.3,5.8-2.7,8.6-4.2c8.6-7.7,16.3-16.2,23.8-25.1c5-6,10-12,15-18c2.4-2.9,5.2-5.4,8.1-7.7
		C631.1,429.3,625.9,417.4,619.6,406.3z"/>
	<g>
		<g>
			<g>
				<path d="M350.4,345.7c41.2-26,90.1-34.4,137.6-23.6c53.6,12.1,97.6,47,121.9,94.4c9.5-4.4,19.7-7.5,30.2-8.8
					c-27.8-58.2-80.6-101.1-145.2-115.7c-114.7-26-229.2,46.2-255.3,160.9l30.2,6.8C280.5,412.2,309.1,371.7,350.4,345.7z"/>
			</g>
			<g>
				<path d="M587.6,655.5c-12.2,0-23.5-2.6-33.8-7.1c-41.4,29.5-94.4,41.3-146.4,29.5c-74.8-17-131.4-79.5-140.8-155.6l-30.7,3.8
					c11,89,77.1,162.2,164.7,182c15.7,3.6,31.5,5.3,47.2,5.3c54.6,0,107-21.1,146.4-58.1C591.9,655.4,589.8,655.5,587.6,655.5z"/>
			</g>
		</g>
	</g>
	<polygon class="st2" points="598.2,410.4 664.1,401.3 697.1,446.8 688,528.6 653.9,543.4 552.8,522.9 526.6,567.2 458.4,536.6 
		534.6,483.1 	"/>
	<polygon class="st2" points="281.2,447.9 214.2,485.4 214.2,512.7 260.7,530.9 283.5,504.7 	"/>
	<g>
		<g>
			<g>
				<g>
					<g>
						<path d="M476.3,473.1c-5.8,2.6-12.7-1.2-13.3-7.5c-0.6-5.8,0.2-11.6,2.4-17.2c3.6-9.6,10.8-17.1,20.1-21.3
							c9.3-4.2,19.7-4.5,29.3-0.8c5.8,2.2,10.9,5.8,15,10.3c4,4.5,2.4,11.6-3,14l-1.1,0.5c-3.6,1.6-7.7,0.5-10.4-2.4
							c-2-2.1-4.4-3.7-7.2-4.8c-4.8-1.8-10.1-1.7-14.8,0.4c-4.7,2.1-8.3,6-10.2,10.8c-1.1,2.8-1.5,5.7-1.2,8.5
							C482.2,467.6,480,471.4,476.3,473.1L476.3,473.1z"/>
					</g>
				</g>
			</g>
			<g>
				<g>
					<path d="M631,404.8c0,0,77.1,106.6,77.1,29.5c0-3-19.3-34.4-19.3-34.4h-37.4"/>
				</g>
			</g>
			<g>
				<path class="st3" d="M562.6,542.1l0.3-0.4c-0.2-0.1-0.3-0.1-0.5-0.2C562.5,541.7,562.5,541.9,562.6,542.1z"/>
			</g>
			<g>
				<g>
					<path d="M562.5,541.5c0.2,0.1,0.3,0.1,0.5,0.2l24-25.8c-12-4.5-23.7-10.7-34.2-19.1c-10.8-8.7-26.9-0.9-26.8,13
						c0,2,0.4,28.9,9.5,61.4l27.2-29.1C562.5,541.9,562.5,541.7,562.5,541.5z"/>
				</g>
			</g>
			<g>
				<g>
					<path d="M697.1,557.8c7.5-1.3,13.1-7.5,13.6-15.1l3.2-45.5l-32.5-9l-1.8,25.7c-0.5,7.5-6.6,13.3-14.1,13.5
						c-20.6,0.6-50.5-1-78.6-11.5l-24,25.8C623.7,570.1,693.6,558.4,697.1,557.8z"/>
				</g>
			</g>
			<g>
				<g>
					<path d="M718.2,435.9c1.1-16.3-5.4-31.8-18-42.4c-12.5-10.5-29.7-13.9-45.6-10.2l-61,13.9c-5.2,1.2-10.7,0.3-15.4-2.4l-47-28
						c-16.5-9.8-36.2-11.5-54.1-4.6l-223.8,86.5l-36.1,14c-15.6,6-25.6,21-25.1,37.8c0.5,15.9,11,29.7,25.7,35.7l72,29.4
						c21.9,9,46.8,8.4,68.2-1.6c21.5-10,37.9-28.6,45.2-51.1l7.9-24.5c2.8-8.7-2-18-10.6-20.8c-8.7-2.8-18,2-20.8,10.6l-7.9,24.5
						c-4.6,14.2-14.7,25.4-28.3,31.6c-13.5,6.1-29,5.7-42.7,0.1l-71.8-29.4c-3.4-1.4-3.9-4.3-3.9-5.8c0-1.6,0.6-4.4,4-5.8L489,393
						c8.4-3.2,17.6-2.5,25.3,2.1l47,28c12,7.1,26.1,9.3,39.6,6.3l62.7-14.3c6-1.4,12.1,0.4,16.6,4.9c3.7,3.7,5.3,9.1,5,14.3
						l-3.8,53.9l32.5,9L718.2,435.9z"/>
				</g>
			</g>
		</g>
	</g>
	<g>
		<g>
			<path d="M635.6,692.5c-6.5,0-13.1-1.4-19.3-4.4l-102.6-41.3c-12.2-6.1-20.8-17.3-23.6-30.6c-2.8-13.4,0.6-27,9.3-37.5l52.4-63
				l23.8,19.8l-52.4,63c-2.7,3.2-3.7,7.4-2.8,11.4c0.8,3.9,3.3,7.2,6.7,9.1l102.5,41.2c5.5,2.8,12.3,1.4,16.3-3.3l127.8-148.2
				c2.8-3.2,3.9-7.5,3-11.7c-0.8-3.9-3.3-7.2-6.7-9l-67.2-21l9.2-29.5l69.3,21.6l0.9,0.4c12.7,5.9,21.7,17.2,24.7,31
				c2.9,13.7-0.6,27.7-9.8,38.4L669.3,677C660.6,687.1,648.2,692.5,635.6,692.5z"/>
		</g>
	</g>
</g>
</svg>
