<?xml version="1.0" encoding="utf-8"?>
<!-- Generator: Adobe Illustrator 24.3.0, SVG Export Plug-In . SVG Version: 6.00 Build 0)  -->
<svg version="1.1" id="Layer_1" xmlns="http://www.w3.org/2000/svg" xmlns:xlink="http://www.w3.org/1999/xlink" x="0px" y="0px"
	 viewBox="0 0 1000 1000" style="enable-background:new 0 0 1000 1000;" xml:space="preserve">
<style type="text/css">
	.st0{fill:#FFFFFF;}
	.st1{fill:#2C78BC;}
	.st2{fill:#EFB916;}
	.st3{fill:none;}
</style>
<g>
	<g>
		<polygon class="st0" points="253.9,500.1 233.1,525.6 234.2,531 266.5,543 291.8,521.1 304.7,499 277.2,485.2 		"/>
		<path class="st1" d="M234.9,525.6c-0.1-11.4,10.5-19.9,21.3-19.9c2,0,2.7,1.7,4.5,2.2c0.9-0.1,2.7,1,3.6,1c1.1,0,2.5,0.9,3.5,1.1
			c0.3-2.2,0.3-7.9,0.3-10.2c0-26.1-21.2-47.3-47.3-47.3s-47.3,21.2-47.3,47.3c0,26.1,21.2,47.3,47.3,47.3c7.7,0,19.5-3.5,25.9-6.7
			C242.3,536.2,234.9,531.8,234.9,525.6z"/>
		<path class="st2" d="M262.5,476.7c-2.6,0.9-5.3,1.4-8.1,1.4c-8.2,0-15-4.7-18.9-11.2c-4.3,0.7-8.6,1.8-12.7,3.3
			c-8.4,3.5-16.5,7.8-24.8,11.7c-5.9,2.8-11.9,5.6-18.2,7.3c-2.7,0.7-5.4,1.3-8.1,1.8c-0.6,3.1-1,6.4-1,9.7c0,27.1,21.9,49,49,49
			c11.5,0,22.1-4,30.4-10.6c-2.9-2.1-12.9-5.7-14.8-8.8c-3-5.1,4.1-11.9,5.9-17.5c1.6-5.1,6.1-11.4,11.3-13.6c0.7-0.3,1.5-0.7,2.1-1
			c2.1-1.9,4-4,5.9-6.2c1.2-1.5,2.5-3,3.7-4.5c0.6-0.7,1.3-1.3,2-1.9C265.3,482.4,264,479.5,262.5,476.7z"/>
		<g>
			<g>
				<g>
					<path d="M195.6,461.7c10.2-6.5,22.4-8.5,34.2-5.9c13.3,3,24.2,11.7,30.3,23.4c2.4-1.1,4.9-1.9,7.5-2.2
						c-6.9-14.5-20-25.1-36.1-28.7c-28.5-6.5-56.9,11.5-63.4,40l7.5,1.7C178.2,478.2,185.3,468.1,195.6,461.7z"/>
				</g>
				<g>
					<path d="M254.5,538.6c-3,0-5.8-0.6-8.4-1.8c-10.3,7.3-23.4,10.3-36.4,7.3c-18.6-4.2-32.6-19.7-35-38.7l-7.6,0.9
						c2.7,22.1,19.2,40.3,40.9,45.2c3.9,0.9,7.8,1.3,11.7,1.3c13.6,0,26.6-5.2,36.4-14.4C255.6,538.6,255,538.6,254.5,538.6z"/>
				</g>
			</g>
		</g>
		<polygon class="st2" points="257.1,477.8 273.5,475.5 281.7,486.8 279.4,507.1 271,510.8 245.9,505.7 239.4,516.7 222.4,509.1 
			241.3,495.8 		"/>
		<polygon class="st2" points="178.4,487.1 161.8,496.4 161.8,503.2 173.3,507.7 179,501.2 		"/>
		<g>
			<g>
				<g>
					<g>
						<g>
							<path d="M226.9,493.3c-1.4,0.6-3.1-0.3-3.3-1.9c-0.1-1.4,0.1-2.9,0.6-4.3c0.9-2.4,2.7-4.3,5-5.3c2.3-1,4.9-1.1,7.3-0.2
								c1.5,0.6,2.7,1.4,3.7,2.6c1,1.1,0.6,2.9-0.8,3.5l-0.3,0.1c-0.9,0.4-1.9,0.1-2.6-0.6c-0.5-0.5-1.1-0.9-1.8-1.2
								c-1.2-0.5-2.5-0.4-3.7,0.1c-1.2,0.5-2.1,1.5-2.5,2.7c-0.3,0.7-0.4,1.4-0.3,2.1C228.3,492,227.8,492.9,226.9,493.3
								L226.9,493.3z"/>
						</g>
					</g>
				</g>
				<g>
					<g>
						<path d="M265.3,476.4c0,0,19.2,26.5,19.2,7.3c0-0.7-4.8-8.5-4.8-8.5h-9.3"/>
					</g>
				</g>
				<g>
					<path class="st3" d="M248.3,510.4L248.3,510.4c0-0.1,0-0.1,0-0.1C248.3,510.3,248.3,510.4,248.3,510.4z"/>
				</g>
				<g>
					<g>
						<path d="M248.3,510.3c0,0,0.1,0,0.1,0.1l6-6.4c-3-1.1-5.9-2.7-8.5-4.7c-2.7-2.2-6.7-0.2-6.7,3.2c0,0.5,0.1,7.2,2.4,15.2
							l6.7-7.2C248.3,510.4,248.3,510.3,248.3,510.3z"/>
					</g>
				</g>
				<g>
					<g>
						<path d="M281.7,514.4c1.9-0.3,3.3-1.9,3.4-3.8l0.8-11.3l-8.1-2.2l-0.4,6.4c-0.1,1.9-1.6,3.3-3.5,3.4
							c-5.1,0.2-12.6-0.2-19.5-2.9l-6,6.4C263.5,517.4,280.9,514.5,281.7,514.4z"/>
					</g>
				</g>
				<g>
					<g>
						<path d="M287,484.1c0.3-4.1-1.3-7.9-4.5-10.5c-3.1-2.6-7.4-3.4-11.3-2.5l-15.2,3.5c-1.3,0.3-2.7,0.1-3.8-0.6l-11.7-7
							c-4.1-2.4-9-2.9-13.4-1.1l-55.6,21.5l-9,3.5c-3.9,1.5-6.4,5.2-6.2,9.4c0.1,3.9,2.7,7.4,6.4,8.9l17.9,7.3
							c5.4,2.2,11.6,2.1,17-0.4c5.3-2.5,9.4-7.1,11.2-12.7l2-6.1c0.7-2.2-0.5-4.5-2.6-5.2c-2.2-0.7-4.5,0.5-5.2,2.6l-2,6.1
							c-1.1,3.5-3.6,6.3-7,7.8c-3.3,1.5-7.2,1.4-10.6,0l-17.8-7.3c-0.8-0.3-1-1.1-1-1.4c0-0.4,0.1-1.1,1-1.4l64.5-25
							c2.1-0.8,4.4-0.6,6.3,0.5l11.7,7c3,1.8,6.5,2.3,9.8,1.6l15.6-3.6c1.5-0.3,3,0.1,4.1,1.2c0.9,0.9,1.3,2.3,1.2,3.6l-0.9,13.4
							l8.1,2.2L287,484.1z"/>
					</g>
				</g>
			</g>
		</g>
		<g>
			<g>
				<path d="M266.4,547.8c-1.6,0-3.3-0.4-4.8-1.1l-25.5-10.2c-3-1.5-5.2-4.3-5.9-7.6c-0.7-3.3,0.2-6.7,2.3-9.3l13-15.7l5.9,4.9
					l-13,15.7c-0.7,0.8-0.9,1.8-0.7,2.8c0.2,1,0.8,1.8,1.7,2.3l25.5,10.2c1.4,0.7,3,0.4,4-0.8l31.7-36.8c0.7-0.8,1-1.9,0.7-2.9
					c-0.2-1-0.8-1.8-1.7-2.2l-16.7-5.2l2.3-7.3l17.2,5.4l0.2,0.1c3.2,1.5,5.4,4.3,6.1,7.7c0.7,3.4-0.2,6.9-2.4,9.5L274.8,544
					C272.6,546.5,269.6,547.8,266.4,547.8z"/>
			</g>
		</g>
	</g>
	<g>
		<path d="M329.3,523.5v-42.4l-4.5-0.7c-1-0.2-1.8-0.5-2.3-1c-0.6-0.5-0.9-1.2-0.9-2.1v-5.1h7.7v-3.8c0-3,0.4-5.6,1.3-8
			c0.9-2.4,2.2-4.4,3.8-6c1.7-1.6,3.7-2.9,6.1-3.8c2.4-0.9,5.1-1.3,8.1-1.3c2.4,0,4.6,0.3,6.6,1l-0.3,6.3c-0.1,1-0.5,1.6-1.4,1.8
			c-0.8,0.2-1.8,0.4-2.9,0.4c-1.5,0-2.8,0.2-4,0.5c-1.2,0.3-2.1,0.9-2.9,1.7c-0.8,0.8-1.4,1.8-1.8,3.1c-0.4,1.3-0.6,2.9-0.6,4.8v3.4
			h13.4v8.9h-13v42.4H329.3z"/>
		<path d="M383.8,470.9c3.3,0,6.3,0.5,9,1.6c2.7,1,5.1,2.6,7.1,4.6c2,2,3.5,4.5,4.6,7.4c1.1,2.9,1.7,6.2,1.7,10c0,0.9,0,1.7-0.1,2.3
			c-0.1,0.6-0.2,1.1-0.5,1.5c-0.2,0.4-0.5,0.6-0.9,0.8c-0.4,0.2-0.8,0.2-1.4,0.2h-31.9c0.4,5.3,1.8,9.2,4.3,11.7
			c2.5,2.5,5.8,3.7,9.9,3.7c2,0,3.8-0.2,5.2-0.7c1.5-0.5,2.7-1,3.8-1.6c1.1-0.6,2-1.1,2.9-1.6c0.8-0.5,1.6-0.7,2.4-0.7
			c0.5,0,0.9,0.1,1.3,0.3c0.4,0.2,0.7,0.5,1,0.9l3.6,4.5c-1.4,1.6-2.9,3-4.6,4.1c-1.7,1.1-3.5,2-5.4,2.6c-1.9,0.7-3.8,1.1-5.7,1.4
			c-1.9,0.3-3.8,0.4-5.6,0.4c-3.6,0-6.9-0.6-10-1.8c-3.1-1.2-5.8-3-8.1-5.3c-2.3-2.3-4.1-5.2-5.4-8.7c-1.3-3.4-2-7.4-2-12
			c0-3.5,0.6-6.9,1.7-10c1.1-3.1,2.8-5.8,4.9-8.1c2.1-2.3,4.7-4.1,7.8-5.5C376.4,471.6,379.9,470.9,383.8,470.9z M384,479.8
			c-3.6,0-6.5,1-8.5,3.1c-2,2.1-3.4,5-3.9,8.7h23.4c0-1.6-0.2-3.1-0.7-4.6c-0.4-1.4-1.1-2.7-2-3.8c-0.9-1.1-2-1.9-3.4-2.5
			C387.5,480.1,385.9,479.8,384,479.8z"/>
		<path d="M433.2,524.3c-4.5,0-7.9-1.3-10.3-3.8c-2.4-2.5-3.6-6-3.6-10.5V481H414c-0.7,0-1.3-0.2-1.7-0.7c-0.5-0.4-0.7-1.1-0.7-2
			v-4.9l8.3-1.4l2.6-14.1c0.1-0.7,0.4-1.2,0.9-1.6c0.5-0.4,1.1-0.6,1.8-0.6h6.4v16.3h13.6v8.9h-13.6v28.1c0,1.6,0.4,2.9,1.2,3.8
			c0.8,0.9,1.9,1.4,3.2,1.4c0.8,0,1.4-0.1,1.9-0.3c0.5-0.2,1-0.4,1.4-0.6c0.4-0.2,0.7-0.4,1-0.6c0.3-0.2,0.6-0.3,0.9-0.3
			c0.4,0,0.7,0.1,0.9,0.3c0.2,0.2,0.5,0.5,0.8,0.8l3.7,6.1c-1.8,1.5-3.9,2.7-6.2,3.4C438.1,523.9,435.7,524.3,433.2,524.3z"/>
		<path d="M491.5,482.6c-0.4,0.5-0.7,0.8-1.1,1.1c-0.4,0.3-0.9,0.4-1.5,0.4c-0.6,0-1.3-0.2-1.9-0.6c-0.6-0.4-1.3-0.8-2.2-1.3
			c-0.8-0.5-1.8-0.9-3-1.3c-1.2-0.4-2.6-0.6-4.3-0.6c-2.2,0-4.1,0.4-5.7,1.2c-1.6,0.8-3,1.9-4.1,3.4c-1.1,1.5-1.9,3.3-2.4,5.4
			c-0.5,2.1-0.8,4.5-0.8,7.1c0,2.8,0.3,5.2,0.9,7.4c0.6,2.2,1.4,4,2.5,5.4c1.1,1.5,2.4,2.6,4,3.3c1.6,0.8,3.4,1.1,5.3,1.1
			c2,0,3.6-0.2,4.8-0.7c1.2-0.5,2.3-1,3.1-1.6c0.8-0.6,1.6-1.1,2.2-1.6c0.6-0.5,1.3-0.7,2.1-0.7c1,0,1.8,0.4,2.3,1.2l3.6,4.5
			c-1.4,1.6-2.9,3-4.5,4.1c-1.6,1.1-3.3,2-5,2.6c-1.7,0.7-3.5,1.1-5.4,1.4c-1.8,0.3-3.7,0.4-5.5,0.4c-3.2,0-6.2-0.6-9-1.8
			c-2.8-1.2-5.3-2.9-7.4-5.2c-2.1-2.3-3.8-5.1-5-8.4c-1.2-3.3-1.8-7.1-1.8-11.3c0-3.8,0.5-7.3,1.6-10.6c1.1-3.2,2.7-6.1,4.8-8.4
			c2.1-2.4,4.7-4.2,7.9-5.6c3.1-1.3,6.7-2,10.8-2c3.9,0,7.2,0.6,10.1,1.9c2.9,1.2,5.5,3,7.8,5.3L491.5,482.6z"/>
		<path d="M503.2,523.5v-75h12.4v28.8c2-1.9,4.2-3.5,6.6-4.6c2.4-1.2,5.3-1.8,8.5-1.8c2.8,0,5.3,0.5,7.5,1.4c2.2,1,4,2.3,5.5,4
			c1.5,1.7,2.6,3.8,3.3,6.2c0.8,2.4,1.1,5.1,1.1,7.9v32.9h-12.4v-32.9c0-3.2-0.7-5.6-2.2-7.3c-1.5-1.7-3.7-2.6-6.6-2.6
			c-2.1,0-4.2,0.5-6,1.5c-1.9,1-3.7,2.3-5.3,4v37.4H503.2z"/>
		<path d="M560.5,523.5v-51.8h7.3c1.3,0,2.2,0.2,2.7,0.7c0.5,0.5,0.8,1.3,1,2.4l0.8,6.3c1.8-3.2,4-5.7,6.5-7.6
			c2.5-1.8,5.3-2.8,8.4-2.8c2.6,0,4.7,0.6,6.3,1.8l-1.6,9.3c-0.1,0.6-0.3,1-0.7,1.3c-0.3,0.3-0.8,0.4-1.4,0.4
			c-0.5,0-1.2-0.1-2.1-0.4c-0.9-0.2-2-0.4-3.5-0.4c-2.6,0-4.8,0.7-6.6,2.1c-1.8,1.4-3.4,3.5-4.7,6.3v32.2H560.5z"/>
		<path d="M623.7,470.9c3.9,0,7.4,0.6,10.5,1.9c3.1,1.2,5.8,3,8,5.3c2.2,2.3,3.9,5.1,5.1,8.4c1.2,3.3,1.8,7,1.8,11.1
			c0,4.1-0.6,7.8-1.8,11.1c-1.2,3.3-2.9,6.1-5.1,8.4c-2.2,2.3-4.9,4.1-8,5.3c-3.1,1.2-6.6,1.9-10.5,1.9c-3.9,0-7.4-0.6-10.5-1.9
			c-3.2-1.2-5.8-3-8.1-5.3c-2.2-2.3-4-5.1-5.2-8.4c-1.2-3.3-1.8-7-1.8-11.1c0-4.1,0.6-7.8,1.8-11.1c1.2-3.3,3-6.1,5.2-8.4
			c2.2-2.3,4.9-4.1,8.1-5.3C616.3,471.5,619.8,470.9,623.7,470.9z M623.7,514.6c4.3,0,7.5-1.4,9.5-4.3c2.1-2.9,3.1-7.1,3.1-12.7
			c0-5.6-1-9.8-3.1-12.8c-2.1-2.9-5.2-4.4-9.5-4.4c-4.4,0-7.6,1.5-9.7,4.4c-2.1,2.9-3.1,7.2-3.1,12.7s1,9.8,3.1,12.7
			C616.1,513.2,619.3,514.6,623.7,514.6z"/>
		<path d="M695.1,482.6c-0.4,0.5-0.7,0.8-1.1,1.1c-0.4,0.3-0.9,0.4-1.5,0.4c-0.6,0-1.3-0.2-1.9-0.6c-0.6-0.4-1.3-0.8-2.2-1.3
			c-0.8-0.5-1.8-0.9-3-1.3c-1.2-0.4-2.6-0.6-4.3-0.6c-2.2,0-4.1,0.4-5.7,1.2c-1.6,0.8-3,1.9-4.1,3.4c-1.1,1.5-1.9,3.3-2.4,5.4
			c-0.5,2.1-0.8,4.5-0.8,7.1c0,2.8,0.3,5.2,0.9,7.4c0.6,2.2,1.4,4,2.5,5.4c1.1,1.5,2.4,2.6,4,3.3c1.6,0.8,3.4,1.1,5.3,1.1
			c2,0,3.6-0.2,4.8-0.7c1.2-0.5,2.3-1,3.1-1.6c0.8-0.6,1.6-1.1,2.2-1.6c0.6-0.5,1.3-0.7,2.1-0.7c1,0,1.8,0.4,2.3,1.2l3.6,4.5
			c-1.4,1.6-2.9,3-4.5,4.1c-1.6,1.1-3.3,2-5,2.6c-1.7,0.7-3.5,1.1-5.4,1.4c-1.8,0.3-3.7,0.4-5.5,0.4c-3.2,0-6.2-0.6-9-1.8
			c-2.8-1.2-5.3-2.9-7.4-5.2c-2.1-2.3-3.8-5.1-5-8.4c-1.2-3.3-1.8-7.1-1.8-11.3c0-3.8,0.5-7.3,1.6-10.6c1.1-3.2,2.7-6.1,4.8-8.4
			c2.1-2.4,4.7-4.2,7.9-5.6c3.1-1.3,6.7-2,10.8-2c3.9,0,7.2,0.6,10.1,1.9c2.9,1.2,5.5,3,7.8,5.3L695.1,482.6z"/>
		<path d="M719.5,448.5v42.9h2.3c0.8,0,1.5-0.1,2-0.4c0.5-0.2,1-0.7,1.5-1.3l12.8-15.9c0.6-0.7,1.2-1.2,1.8-1.6
			c0.6-0.4,1.5-0.6,2.5-0.6h11.4l-16.1,19.2c-0.6,0.7-1.2,1.4-1.8,1.9c-0.6,0.6-1.3,1.1-2,1.5c0.7,0.5,1.3,1.1,1.9,1.8
			c0.5,0.7,1.1,1.4,1.6,2.2l17.2,25.1h-11.2c-1,0-1.8-0.2-2.5-0.5c-0.7-0.3-1.3-0.9-1.8-1.7l-13.1-19.6c-0.5-0.8-1-1.3-1.5-1.5
			c-0.5-0.2-1.3-0.4-2.3-0.4h-2.8v23.7H707v-75H719.5z"/>
		<path d="M780.7,470.9c3.3,0,6.3,0.5,9,1.6c2.7,1,5.1,2.6,7.1,4.6c2,2,3.5,4.5,4.6,7.4c1.1,2.9,1.7,6.2,1.7,10c0,0.9,0,1.7-0.1,2.3
			c-0.1,0.6-0.2,1.1-0.5,1.5c-0.2,0.4-0.5,0.6-0.9,0.8c-0.4,0.2-0.8,0.2-1.4,0.2h-31.9c0.4,5.3,1.8,9.2,4.3,11.7
			c2.5,2.5,5.8,3.7,9.9,3.7c2,0,3.8-0.2,5.2-0.7c1.5-0.5,2.7-1,3.8-1.6c1.1-0.6,2-1.1,2.9-1.6c0.8-0.5,1.6-0.7,2.4-0.7
			c0.5,0,0.9,0.1,1.3,0.3c0.4,0.2,0.7,0.5,1,0.9l3.6,4.5c-1.4,1.6-2.9,3-4.6,4.1c-1.7,1.1-3.5,2-5.4,2.6c-1.9,0.7-3.8,1.1-5.7,1.4
			c-1.9,0.3-3.8,0.4-5.6,0.4c-3.6,0-6.9-0.6-10-1.8c-3.1-1.2-5.8-3-8.1-5.3c-2.3-2.3-4.1-5.2-5.4-8.7c-1.3-3.4-2-7.4-2-12
			c0-3.5,0.6-6.9,1.7-10c1.1-3.1,2.8-5.8,4.9-8.1c2.1-2.3,4.7-4.1,7.8-5.5C773.4,471.6,776.9,470.9,780.7,470.9z M781,479.8
			c-3.6,0-6.5,1-8.5,3.1c-2,2.1-3.4,5-3.9,8.7h23.4c0-1.6-0.2-3.1-0.7-4.6c-0.4-1.4-1.1-2.7-2-3.8c-0.9-1.1-2-1.9-3.4-2.5
			C784.4,480.1,782.8,479.8,781,479.8z"/>
		<path d="M830.2,524.3c-4.5,0-7.9-1.3-10.3-3.8c-2.4-2.5-3.6-6-3.6-10.5V481H811c-0.7,0-1.3-0.2-1.7-0.7c-0.5-0.4-0.7-1.1-0.7-2
			v-4.9l8.3-1.4l2.6-14.1c0.1-0.7,0.4-1.2,0.9-1.6c0.5-0.4,1.1-0.6,1.8-0.6h6.4v16.3h13.6v8.9h-13.6v28.1c0,1.6,0.4,2.9,1.2,3.8
			c0.8,0.9,1.9,1.4,3.2,1.4c0.8,0,1.4-0.1,1.9-0.3c0.5-0.2,1-0.4,1.4-0.6c0.4-0.2,0.7-0.4,1-0.6c0.3-0.2,0.6-0.3,0.9-0.3
			c0.4,0,0.7,0.1,0.9,0.3c0.2,0.2,0.5,0.5,0.8,0.8l3.7,6.1c-1.8,1.5-3.9,2.7-6.2,3.4C835.1,523.9,832.7,524.3,830.2,524.3z"/>
	</g>
</g>
</svg>
